<svg width="23" height="23" viewBox="0 0 23 23" fill="none" xmlns="http://www.w3.org/2000/svg">
<path d="M9.58466 1.38837H13.4286V2.03517H14.8168V1.29782C14.817 0.58223 14.2351 0 13.5199 0H9.49341C8.77817 0 8.19629 0.58223 8.19629 1.29782V2.03517H9.58466V1.38837Z" fill="white"/>
<path d="M18.0226 7.53564H4.99036C4.63327 7.53564 4.35216 7.84027 4.38093 8.19631L5.47047 21.6687C5.53118 22.4208 6.15851 23 6.91218 23H16.1006C16.8543 23 17.4816 22.4208 17.5423 21.6685L18.6319 8.19631C18.6608 7.84027 18.3797 7.53564 18.0226 7.53564ZM8.14595 21.563C8.13138 21.5639 8.11682 21.5644 8.10243 21.5644C7.73849 21.5644 7.43299 21.281 7.41035 20.9129L6.72758 9.85281C6.70406 9.47009 6.99518 9.14072 7.37771 9.11721C7.75902 9.09405 8.0898 9.38446 8.11331 9.76735L8.79591 20.8274C8.8196 21.2101 8.52849 21.5393 8.14595 21.563ZM12.2084 20.8702C12.2084 21.2535 11.8976 21.5643 11.5142 21.5643C11.1308 21.5643 10.82 21.2535 10.82 20.8702V9.80999C10.82 9.42657 11.1308 9.11581 11.5142 9.11581C11.8975 9.11581 12.2084 9.42657 12.2084 9.80999V20.8702ZM16.2854 9.85088L15.6335 20.911C15.6119 21.2798 15.3059 21.5643 14.9413 21.5643C14.9276 21.5643 14.9137 21.5639 14.8998 21.5632C14.5171 21.5406 14.2251 21.2121 14.2478 20.8294L14.8995 9.7691C14.922 9.38639 15.2494 9.0944 15.6332 9.11703C16.0159 9.1395 16.3079 9.46816 16.2854 9.85088Z" fill="white"/>
<path d="M20.4236 5.39348L19.9678 4.02687C19.8476 3.66662 19.5103 3.42358 19.1304 3.42358H3.88344C3.50371 3.42358 3.16627 3.66662 3.04624 4.02687L2.59035 5.39348C2.50244 5.65704 2.61685 5.92587 2.83041 6.05994C2.91744 6.11451 3.02045 6.14732 3.13363 6.14732H19.8804C19.9935 6.14732 20.0967 6.11451 20.1836 6.05976C20.3971 5.9257 20.5116 5.65687 20.4236 5.39348Z" fill="white"/>
</svg>
