<svg width="58" height="58" viewBox="0 0 58 58" fill="none" xmlns="http://www.w3.org/2000/svg">
<path d="M10.5905 0C4.72381 0 0 4.65727 0 10.4413V46.7418C0 52.5258 4.72381 57.183 10.5905 57.183H30.5461V34.828H24.5504V26.7795H30.5461V19.9033C30.5461 14.5009 34.0887 9.54064 42.2494 9.54064C45.5535 9.54064 47.9969 9.85337 47.9969 9.85337L47.8047 17.3694C47.8047 17.3694 45.3128 17.3462 42.5938 17.3462C39.6509 17.3462 39.179 18.683 39.179 20.9023V26.7796H48.0385L47.6525 34.8281H39.179V57.1831H47.4095C53.2762 57.1831 58 52.5258 58 46.7418V10.4413C58 4.65733 53.2762 5.7183e-05 47.4095 5.7183e-05L10.5905 0Z" fill="#9AC720"/>
</svg>
