<svg width="144" height="118" viewBox="0 0 144 118" fill="none" xmlns="http://www.w3.org/2000/svg">
<path d="M25.9134 4.12847L25.9097 4.11739C26.0059 4.07309 26.1058 4.03247 26.1946 3.99555C26.709 3.76294 27.2418 3.54141 27.7673 3.32726C28.1188 3.17957 28.4592 3.02449 28.8219 2.88788C51.853 -5.79625 77.5632 5.78997 86.2665 28.7593C92.028 43.9676 85.9223 62.5986 81.2266 77.0168C80.1535 80.3177 79.7316 85.2985 79.6058 87.0375L62.6914 93.414L60.1048 94.3888L46.5171 99.5136C45.27 98.2914 41.6511 94.8355 38.6575 93.0669C25.5804 85.3502 8.64744 75.407 2.88966 60.1987C-5.43618 38.2225 4.84346 13.8058 25.9134 4.12847Z" fill="#FFD055"/>
<path d="M28.9697 2.83927C51.9601 -5.74886 77.5852 5.82998 86.2663 28.7587C92.0278 43.967 85.9222 62.598 81.2264 77.0162C80.1533 80.317 79.7314 85.2979 79.6056 87.0369L63.2019 93.2214L28.9697 2.83927Z" fill="#FAB730"/>
<path d="M49.7616 52.1601L49.7912 52.149C49.7505 52.0567 49.6876 51.9681 49.6506 51.8647C48.2185 48.0838 50.1279 43.8599 53.9208 42.4273C57.71 40.9985 61.9432 42.9036 63.3753 46.6882C64.8073 50.469 62.8979 54.6929 59.105 56.1255C58.1503 56.4874 57.1697 56.6351 56.2076 56.5907L69.7436 92.3242L65.5659 93.9007L49.7616 52.1601Z" fill="#E15561"/>
<path d="M43.7747 61.2798L57.3107 97.0132L61.4884 95.4367L45.6804 53.6997L45.6508 53.7107C45.6175 53.6147 45.6064 53.504 45.5694 53.4043C44.1373 49.6234 39.9041 47.7146 36.1112 49.1471C32.3183 50.576 30.4089 54.8036 31.841 58.5845C33.273 62.3653 37.5063 64.2742 41.2991 62.8416C42.2538 62.4798 43.0827 61.9444 43.7747 61.2798Z" fill="#ED6972"/>
<path d="M51.8718 113.75L51.8607 113.754L46.3916 99.3173L79.5543 86.8118L85.0383 101.256L82.4147 109.205L59.0876 118L51.8718 113.75Z" fill="#42566C"/>
<path d="M63.2236 92.9704L79.5534 86.8118L85.0373 101.256L82.4138 109.205L71.0018 113.507L63.2236 92.9704Z" fill="#34495E"/>
<path d="M45.0918 100.547L82.3471 89.4995L83.1575 91.6373L45.9022 102.684L45.0918 100.547ZM47.4859 106.871L84.745 95.8317L83.9309 93.6865L46.6756 104.734L47.4859 106.871ZM49.0734 111.058L86.3287 100.011L85.5184 97.8735L48.263 108.921L49.0734 111.058Z" fill="#546981"/>
<path d="M67.1458 103.323L85.5182 97.8735L86.3286 100.011L67.9562 105.461L67.1458 103.323ZM64.785 97.0871L83.1573 91.6373L82.347 89.4995L63.9746 94.9493L64.785 97.0871ZM66.3688 101.274L84.7448 95.8317L83.9307 93.6865L65.5584 99.1362L66.3688 101.274Z" fill="#42566C"/>
<path d="M121.874 43.4796V43.4722C121.937 43.4833 122 43.4981 122.056 43.5091C122.389 43.5682 122.725 43.6384 123.058 43.7122C123.281 43.7565 123.503 43.7971 123.728 43.8525C138.026 47.3786 146.745 61.7968 143.211 76.0599C140.872 85.5009 131.525 92.6085 124.302 98.1173C122.651 99.38 120.746 101.688 120.094 102.504L109.593 99.9117L107.987 99.5166L99.55 97.4342C99.3539 96.4115 98.7471 93.4798 97.8738 91.5968C94.0587 83.3668 89.1076 72.7295 91.4462 63.2884C94.8284 49.6456 108.202 41.1055 121.874 43.4796Z" fill="#FFD055"/>
<path d="M123.817 43.8821C138.06 47.4414 146.737 61.83 143.211 76.0636C140.872 85.5046 131.525 92.6121 124.302 98.121C122.652 99.3837 120.746 101.691 120.095 102.507L109.911 99.9966L123.817 43.8821Z" fill="#FAB730"/>
<path d="M117.272 75.2181L117.29 75.2218C117.301 75.1627 117.301 75.0963 117.316 75.0335C117.897 72.6852 120.276 71.2527 122.634 71.8323C124.987 72.412 126.423 74.7861 125.842 77.1344C125.261 79.479 122.881 80.9152 120.528 80.3356C119.936 80.1879 119.403 79.9294 118.944 79.5823L113.446 101.765L110.852 101.127L117.272 75.2181Z" fill="#E15561"/>
<path d="M111.217 77.6772L105.719 99.8601L108.313 100.499L114.733 74.5905L114.714 74.5868C114.729 74.5277 114.762 74.4723 114.777 74.4095C115.358 72.0613 113.922 69.6872 111.569 69.1075C109.216 68.5278 106.836 69.9604 106.255 72.3087C105.674 74.6532 107.11 77.031 109.464 77.6107C110.059 77.7547 110.648 77.7732 111.217 77.6772Z" fill="#ED6972"/>
<path d="M97.3443 106.262L97.3369 106.259L99.5571 97.2976L120.146 102.374L117.93 111.347L113.933 114.374L99.4535 110.8L97.3443 106.262Z" fill="#42566C"/>
<path d="M110.007 99.8748L120.146 102.374L117.929 111.347L113.933 114.374L106.851 112.624L110.007 99.8748Z" fill="#34495E"/>
<path d="M98.4989 97.46L120.605 104.645L120.276 105.974L98.1696 98.7892L98.4989 97.46ZM97.5257 101.389L119.632 108.577L119.961 107.244L97.855 100.059L97.5257 101.389ZM96.8818 103.988L118.988 111.173L119.317 109.847L97.2112 102.662L96.8818 103.988Z" fill="#546981"/>
<path d="M108.416 106.303L119.318 109.847L118.988 111.173L108.087 107.628L108.416 106.303ZM109.375 102.43L120.276 105.974L120.605 104.645L109.704 101.101L109.375 102.43ZM108.731 105.029L119.632 108.577L119.961 107.244L109.06 103.7L108.731 105.029Z" fill="#42566C"/>
</svg>
