<svg width="190" height="159" viewBox="0 0 190 159" fill="none" xmlns="http://www.w3.org/2000/svg">
<g filter="url(#filter0_d)">
<path d="M128.982 38.2619C127.984 36.0058 127.604 33.4893 126.131 31.4499C123.994 28.5431 119.861 27.1112 118.151 23.9873C117.391 22.6424 117.201 21.1238 117.153 19.6486C117.153 16.6983 118.103 13.5744 120.573 11.7087C123.424 9.53931 127.746 9.58264 131.072 11.0144C134.444 12.4463 136.962 15.0929 139.147 17.8264C141.332 20.5597 143.232 23.5102 145.75 25.9831C147.65 27.8055 149.835 29.4107 151.26 31.5367C155.155 37.4375 151.165 44.9001 144.277 47.0261C138.34 48.8918 131.024 42.9911 128.982 38.2618V38.2619Z" fill="#2C373F"/>
<path d="M120.489 79.8816C121.105 80.3161 120.442 80.0119 121.295 80.5332C121.105 82.5317 119.115 83.7482 119.115 83.7482C119.115 83.7482 119.021 86.9199 118.404 86.8329C117.741 86.7894 118.168 83.7917 118.168 83.7917C118.168 83.7917 116.841 86.8764 116.32 86.7026C115.751 86.4854 117.789 82.9227 117.789 82.9227C117.789 82.9227 114.946 86.4854 114.567 85.9206C114.188 85.3558 116.652 81.9236 116.652 81.9236C116.652 81.9236 113.572 84.8779 113.24 84.3999C112.909 83.9221 116.889 79.838 116.889 79.838C115.041 79.838 115.183 78.665 115.183 78.665L119.684 78.9257C119.684 78.9257 120.205 79.6644 120.489 79.8816Z" fill="#FFC5B1"/>
<path d="M163.601 20.4031C164.36 20.5335 163.791 20.2728 164.786 20.577C166.444 19.1866 166.207 17.0578 166.207 17.0578C166.207 17.0578 168.955 15.0158 168.529 14.6248C168.055 14.2338 165.686 16.3626 165.686 16.3626C165.686 16.3626 167.629 13.5386 167.108 13.2779C166.586 13.0173 164.644 16.6233 164.644 16.6233C164.644 16.6233 166.065 12.4524 165.307 12.5394C164.549 12.6261 163.033 16.4494 163.033 16.4494C163.033 16.4494 163.744 12.5394 163.128 12.5828C162.465 12.6263 161.47 17.7963 161.47 17.7963C159.953 16.6668 158.911 17.4055 158.911 17.4055L162.228 20.3596C162.18 20.4031 163.27 20.3596 163.601 20.4031Z" fill="#FFC5B1"/>
<path d="M144.698 37.6516C146.072 37.4345 150.336 39.9978 149.246 45.1244C149.151 45.5589 148.535 46.5147 148.393 46.9057C148.204 47.3837 149.72 49.2084 149.72 49.2084L145.835 50.3381C145.645 49.2519 145.93 47.6877 144.698 47.2097C144.224 47.036 143.703 46.9057 143.277 46.6886C142.092 46.0802 141.429 44.7769 140.955 43.6907C140.576 42.9087 140.292 42.0397 140.339 41.1707C140.339 38.9985 142.471 37.9556 144.698 37.6516Z" fill="#FFC5B1"/>
<path d="M152.516 51.6847C152.516 49.8165 151.853 49.1213 149.768 49.1213C147.636 49.1213 144.841 49.8163 144.841 51.6847C144.841 53.5529 146.357 55.8556 148.441 55.8556C150.573 55.8556 152.516 53.5529 152.516 51.6847Z" fill="#FFC5B1"/>
<path d="M150.811 48.2538C150.811 48.2538 157.396 42.0409 158.723 35.915C160.049 29.8325 162.276 19.9268 162.276 19.9268L164.787 20.5351C164.787 20.5351 165.971 34.0469 164.787 36.1322C163.602 38.2177 156.875 52.5985 157.017 56.2478L150.811 48.2538Z" fill="#FFC5B1"/>
<path d="M139.106 51.2505C139.106 51.2505 136.88 51.598 133.469 58.7232C130.057 65.8484 119.492 79.143 119.492 79.143L121.198 80.5769C121.198 80.5769 131.479 73.582 133.421 69.3243C135.411 65.0664 137.875 59.7659 139.059 60.0267C140.291 60.2439 145.265 53.9008 139.106 51.2505Z" fill="#FFC5B1"/>
<path d="M156.732 57.2464L159.812 49.4695C159.812 49.4695 159.338 45.8199 153.274 44.5166L149.862 49.035L156.732 57.2464Z" fill="#F97A5D"/>
<path d="M140.105 50.6853C140.105 50.6853 136.504 50.946 133.566 56.8547C133.566 56.8547 136.788 60.9387 139.157 61.0689C139.157 61.0689 147.922 54.2045 140.105 50.6853Z" fill="#F97A5D"/>
<path d="M150.052 120.679C150.052 120.679 144.841 130.454 144.225 128.63C143.609 126.805 143.798 122.46 144.13 121.852C144.462 121.244 146.594 118.507 146.594 118.507L150.052 120.679Z" fill="#FFC5B1"/>
<path d="M150.431 74.1892L155.216 72.4949C155.216 72.4949 169.382 95.4345 169.335 101.821C169.288 108.208 149.863 120.938 149.863 120.938L146.594 118.461C146.594 118.461 155.785 106.079 159.007 102.864C160.618 101.256 149.152 93.3925 147.399 85.7895C145.646 78.2297 150.431 74.1892 150.431 74.1892Z" fill="#5D4484"/>
<path d="M121.767 115.551C121.767 115.551 112.008 122.155 112.387 120.287C112.813 118.418 115.229 114.639 115.845 114.248C116.461 113.813 119.778 112.249 119.778 112.249L121.767 115.551Z" fill="#FFC5B1"/>
<path d="M137.449 82.315L151.568 74.7988C151.568 74.7988 152.136 100.867 148.725 106.515C145.314 112.163 121.388 115.725 121.388 115.725L119.777 112.206C119.777 112.206 134.559 104.125 139.06 102.561C143.656 100.997 137.449 82.315 137.449 82.315H137.449Z" fill="#6E5395"/>
<path d="M145.881 69.7148C145.881 69.7148 135.505 73.1037 137.447 82.3578C139.437 91.6118 142.754 93.3497 142.754 93.3497L148.723 84.3563L154.693 72.6257L148.723 71.9307L145.881 69.7148Z" fill="#6E5395"/>
<path d="M150.81 48.2529C150.81 48.2529 158.485 52.2066 158.485 61.0697C158.485 61.0697 157.49 71.1926 155.927 73.4084C155.927 73.4084 153.368 73.9731 150.146 73.4084C146.783 72.8001 143.561 70.6277 143.561 70.6277L140.955 58.2022L138.918 50.9466L140.008 50.5991L145.788 50.0343C145.788 50.0343 144.982 57.9415 151.378 53.9878C152.752 53.1623 149.673 49.0349 149.673 49.0349L150.81 48.2529Z" fill="#F97A5D"/>
<path d="M121.288 24.9089C121.336 24.8654 121.669 25.1706 122.241 25.7807C122.812 26.3912 123.573 27.3069 124.335 28.5274C125.097 29.7482 125.858 31.3177 126.43 33.1487C127.001 34.9363 127.382 36.9852 128.239 38.9471C128.667 39.9063 129.238 40.8216 129.905 41.6065C130.571 42.3913 131.285 43.0888 132.047 43.6992C133.57 44.8763 135.189 45.7046 136.617 46.1406C138.045 46.6202 139.283 46.8382 140.092 46.9254C140.949 47.0126 141.425 47.0126 141.425 47.0563C141.425 47.0998 140.949 47.1434 140.092 47.1434C139.235 47.1434 137.95 46.9689 136.474 46.533C134.999 46.0971 133.285 45.3122 131.666 44.0916C130.857 43.4812 130.095 42.74 129.429 41.9554C128.762 41.127 128.143 40.1678 127.715 39.1651C126.811 37.116 126.477 35.0669 125.954 33.2796C125.43 31.4921 124.763 29.9661 124.05 28.7018C123.335 27.4811 122.669 26.522 122.145 25.8681C121.526 25.3013 121.241 24.9525 121.288 24.9089Z" fill="#2C373F"/>
<path d="M140.956 14.7327C141.052 14.7327 141.195 16.1713 142.103 18.3072C142.533 19.3971 143.202 20.6177 144.157 21.8383C144.635 22.4485 145.161 23.0588 145.782 23.6691C146.403 24.2794 147.072 24.8897 147.693 25.5872C148.983 26.9821 149.844 28.5079 150.656 29.8594C151.468 31.2106 152.137 32.4749 152.472 33.6518C152.806 34.7853 152.854 35.7879 152.711 36.4418C152.615 37.0956 152.424 37.4445 152.376 37.4445C152.328 37.4445 152.424 37.0956 152.424 36.4418C152.472 35.7879 152.376 34.8723 151.994 33.7826C151.611 32.6927 150.943 31.4722 150.13 30.1644C149.27 28.8567 148.41 27.3745 147.168 26.0231C146.547 25.3693 145.877 24.759 145.256 24.105C144.635 23.4949 144.062 22.841 143.584 22.187C142.628 20.8792 142.007 19.615 141.577 18.4816C141.147 17.3482 141.004 16.4328 140.908 15.7789C140.908 15.0814 140.908 14.7327 140.956 14.7327Z" fill="#2C373F"/>
<path d="M145.857 43.092C145.857 43.0509 146.093 43.0097 146.376 42.7627C146.423 42.7215 146.47 42.6391 146.47 42.5567C146.47 42.5156 146.423 42.392 146.376 42.3508C146.282 42.3096 146.234 42.2684 146.093 42.2684C145.999 42.2684 145.857 42.3096 145.669 42.3508C145.292 42.392 144.962 42.1862 144.773 42.0214C144.584 41.8567 144.396 41.6919 144.302 41.5273C144.066 41.239 143.971 40.9919 144.019 40.9919C144.066 40.9919 144.207 41.1566 144.49 41.4038C144.632 41.5273 144.773 41.6921 145.009 41.8155C145.197 41.9391 145.433 42.0626 145.669 42.0626C145.81 42.0626 145.952 41.9801 146.14 41.9801C146.329 41.9801 146.517 42.0213 146.659 42.145C146.8 42.2684 146.847 42.392 146.847 42.5567C146.8 42.7215 146.706 42.8039 146.612 42.8861C146.14 43.1744 145.81 43.1332 145.857 43.092Z" fill="#F97A5D"/>
<path d="M147.878 43.5952L144.779 44.605C144.779 44.5629 147.401 46.6245 147.878 43.5952Z" fill="white"/>
<path d="M144.477 43.3056C144.611 43.512 144.433 43.8007 144.076 43.9657C143.765 44.1309 143.408 44.0895 143.275 43.8833C143.141 43.6769 143.319 43.3882 143.676 43.2232C143.987 43.0582 144.388 43.0994 144.477 43.3056Z" fill="#F4B19F"/>
<path d="M148.115 41.4607C148.204 41.6752 148.026 41.9756 147.67 42.1044C147.314 42.2333 146.958 42.1903 146.869 41.9328C146.78 41.7182 146.958 41.4177 147.314 41.2891C147.67 41.1602 148.026 41.246 148.115 41.4607Z" fill="#F4B19F"/>
<path d="M144.779 47.275C144.779 47.275 145.802 47.4515 147.103 47.1423C147.103 47.1423 146.452 47.7165 145.43 47.849C145.384 47.8932 145.151 47.4515 144.779 47.2748V47.275Z" fill="#EDA091"/>
<path d="M145.975 41.064C146.067 41.1435 146.113 41.3027 146.021 41.3821C145.928 41.4617 145.744 41.5013 145.651 41.4219C145.559 41.3423 145.513 41.1832 145.605 41.1038C145.697 40.9846 145.836 40.9446 145.975 41.064Z" fill="#2C373F"/>
<path d="M143.909 41.9953C144.002 42.0777 144.048 42.2425 143.955 42.3249C143.863 42.4074 143.678 42.4486 143.586 42.3662C143.494 42.2837 143.447 42.1189 143.54 42.0365C143.632 41.9127 143.817 41.9127 143.909 41.9953Z" fill="#2C373F"/>
<path d="M146.065 39.9587C146.013 40.0431 145.751 40.0431 145.436 40.1275C145.121 40.212 144.859 40.3384 144.806 40.2541C144.701 40.212 144.911 39.9165 145.331 39.8321C145.751 39.7478 146.118 39.9165 146.065 39.9587Z" fill="#2C373F"/>
<path d="M142.211 41.9314C142.16 41.8872 142.262 41.6219 142.515 41.3123C142.819 41.047 143.174 40.9586 143.225 41.0028C143.275 41.0912 143.022 41.2681 142.768 41.4891C142.566 41.7986 142.312 41.9756 142.211 41.9314Z" fill="#2C373F"/>
<path d="M141.055 43.995C141.055 43.995 140.117 43.1608 139.67 43.9024C139.223 44.6439 141.681 45.0147 141.681 45.0147L141.055 43.995Z" fill="#FFC5B1"/>
<path d="M117.409 113.387C117.409 113.387 115.985 113.944 115.605 114.287C115.225 114.63 111.854 119.905 112.281 120.592C112.709 121.278 116.127 119.005 116.127 119.005C116.127 119.005 113.279 119.477 117.409 113.387Z" fill="#6E5395"/>
<path d="M145.082 120.483C145.082 120.483 144.107 121.473 143.921 121.946C143.782 122.42 143.503 128.532 144.2 128.962C144.896 129.392 146.846 125.992 146.846 125.992C146.846 125.992 144.571 127.671 145.082 120.483Z" fill="#6E5395"/>
<path d="M75.3511 45.6797C75.3511 45.6797 76.5089 46.4263 75.9576 47.6209C75.3511 48.8153 72.8149 52.4487 69.3969 52.2995C69.2314 52.2995 73.7523 45.6797 73.7523 45.6797H75.3511Z" fill="#F97A5D"/>
<path d="M80.6977 112.45C80.6977 112.45 84.9608 108.943 86.3272 109.595C88.0216 110.346 97.5863 118.961 97.2037 123.018C97.0397 124.671 94.9628 123.268 91.1916 119.712C87.4203 116.156 82.7199 117.658 82.7199 117.658L80.6977 112.45Z" fill="#6E5395"/>
<path d="M70.3137 118.36L75.4514 115.505C75.4514 115.505 88.842 126.975 86.7105 128.528C85.1254 129.68 84.1963 128.628 80.4251 125.072C76.6538 121.516 71.8988 123.569 71.8988 123.569L70.3137 118.36Z" fill="#6E5395"/>
<path d="M38.7785 80.5452L37.8494 93.167L59.2744 88.0082L38.7785 80.5452Z" fill="#E0A584"/>
<path d="M59.2742 88.4583C59.2742 88.4583 40.4725 89.5602 38.013 88.7589C38.013 88.7589 34.3511 121.816 40.855 125.372C47.4138 128.928 62.0615 123.719 62.0615 123.719L58.1263 116.607L49.6002 116.106V103.384L50.2013 103.534L59.2742 88.4583Z" fill="#1D262D"/>
<path d="M82.8301 110.997C82.8301 110.997 87.5307 112.8 86.0003 117.108C86.0003 117.108 69.8768 128.678 62.0064 126.023C57.6339 124.521 52.8788 113.101 49.5995 103.334L37.9578 88.7587C37.9578 88.7587 43.4234 89.0091 45.2816 89.0091C48.7798 89.0091 59.2736 88.4583 59.2736 88.4583C59.2736 88.4583 64.7391 114.704 66.7068 115.305C68.6743 115.956 82.8301 110.997 82.8301 110.997Z" fill="#2C373F"/>
<path d="M54.9014 55.5507C54.9014 55.5507 43.6422 45.884 41.6747 43.3295C39.707 40.7752 35.5532 32.2603 30.4156 28.7042L32.9297 23.8457C32.9297 23.8457 31.3993 23.0945 30.4156 25.0978C30.4156 25.0978 26.8083 18.4865 25.9883 18.5866C25.1685 18.7369 27.6282 23.6956 27.6282 23.6956C27.6282 23.6956 24.1301 19.0876 23.201 19.2377C22.2172 19.388 25.7152 24.3968 25.7152 24.3968C25.7152 24.3968 21.8346 20.2395 21.2879 20.7904C20.7415 21.2914 24.3488 24.3968 24.3488 24.3968C24.3488 24.3968 20.4682 22.3431 20.031 23.0445C19.5937 23.6954 23.9116 25.4987 23.9116 25.4987C23.9116 25.4987 24.3488 28.4037 26.9723 29.7058C26.9723 29.7058 32.2193 42.6283 36.9197 46.8356L52.1139 61.3106L54.9014 55.5507Z" fill="#FFC5B1"/>
<path d="M68.3459 60.5593C68.3459 60.5593 79.0037 70.777 81.7913 72.5301C84.5786 74.2831 93.9248 78.0396 97.8601 82.6977L103.107 80.3436C103.107 80.3436 103.982 81.7459 101.741 82.6477C101.741 82.6477 109.01 85.9034 108.846 86.6546C108.737 87.4058 103.271 85.1519 103.271 85.1519C103.271 85.1519 108.299 88.3074 108.19 89.2089C108.081 90.1106 102.56 86.955 102.56 86.955C102.56 86.955 107.097 90.4612 106.55 91.0122C106.004 91.513 102.56 88.2573 102.56 88.2573C102.56 88.2573 104.856 91.8137 104.091 92.2142C103.38 92.6149 101.358 88.6581 101.358 88.6581C101.358 88.6581 98.1334 88.3074 96.767 85.9034C96.767 85.9034 83.3763 81.0449 78.7853 76.7375L62.1151 65.9186L68.3459 60.5593Z" fill="#FFC5B1"/>
<path d="M64.3546 56.5025L69.7656 61.361L68.3992 66.8203C68.3992 66.8203 63.0975 78.4906 62.2779 81.3455C61.0207 85.8032 63.0429 92.5651 63.0429 92.5651C63.0429 92.5651 54.0248 91.8639 45.8265 91.6133C37.6279 91.3629 34.95 88.9588 34.95 88.9588C34.95 88.9588 42.0552 67.2711 46.9742 61.2106C51.8932 55.1502 53.6421 53.2468 53.6421 53.2468L60.8567 54.6994L64.3546 56.5025Z" fill="#B06CAA"/>
<path d="M48.5068 60.4601L42.8771 57.1543C42.8771 57.1543 42.0027 53.6482 48.7801 49.491L56.7051 54.0489L48.5068 60.4601Z" fill="#B06CAA"/>
<path d="M68.6207 60.9596C71.6814 61.3604 77.311 68.5227 77.9668 68.5227C77.9668 68.5227 73.9769 74.4328 70.8616 74.6334C70.8616 74.6334 57.0336 59.457 68.6207 60.9596Z" fill="#B06CAA"/>
<path d="M57.7445 56.3016C57.7445 56.3016 62.2264 53.2463 62.0624 51.994C62.0078 51.6934 61.4065 51.1926 61.2427 50.742C60.368 48.3378 64.5766 42.1771 67.1455 40.9248C69.1678 39.9232 68.2932 39.8231 72.5563 42.127C76.8193 44.4309 74.4145 48.4379 72.5016 50.5416C70.6981 52.4949 68.621 53.3464 66.8175 53.4967L64.194 58.8559L57.7445 56.3016Z" fill="#FFC5B1"/>
<path d="M65.8347 60.5608C66.7093 58.6576 65.0698 56.2534 62.2276 55.2015C59.3854 54.1496 56.434 54.851 55.5595 56.7542C54.7397 58.6576 57.5819 61.5125 59.1668 62.1135C60.7519 62.6645 64.9603 62.4641 65.8347 60.5608Z" fill="#FFC5B1"/>
<path d="M72.4414 50.6482C72.4414 50.6482 73.8743 50.601 74.0334 51.4039C74.1926 52.2538 71.4331 52.2538 70.4248 51.5928L72.4414 50.6482Z" fill="#FFC5B1"/>
<path d="M71.7404 51.3563C72.0112 49.7567 73.8528 48.5568 73.7444 47.007C72.8779 47.007 72.2822 46.0073 72.7154 45.1572C72.8777 44.8074 73.1487 44.5075 73.3111 44.2075C73.4736 43.8574 73.5279 43.4577 73.2571 43.2575C73.1487 43.1576 72.9862 43.1576 72.8236 43.1576C71.5236 43.0577 69.2488 43.4075 68.0572 43.0077C66.9197 42.6076 65.674 41.8578 65.7823 40.558C65.8905 39.4082 66.9739 38.5084 67.9488 37.8084C68.5447 37.4084 70.1696 36.3585 70.7655 36.4586C71.6863 36.6086 71.9571 37.7584 72.0114 38.7082C72.6612 38.1084 73.6362 38.2083 74.2319 38.7082C74.8278 39.1581 75.0986 39.9081 75.3152 40.6579C75.586 41.3579 75.8027 42.1077 76.3986 42.6076C76.9402 43.0577 77.7527 43.4075 77.6445 44.1575C77.536 45.0573 76.236 45.4072 75.6403 46.1572C75.8027 45.9572 75.9111 47.1571 75.8027 47.357C75.5319 47.957 74.936 48.3568 74.4487 48.8568C73.4736 49.7567 73.0403 50.7566 71.7406 51.3565L71.7404 51.3563Z" fill="#F97A5D"/>
<path d="M63.5243 47.8088L66.8096 49.353C66.8096 49.353 62.8782 51.993 63.5243 47.8088Z" fill="white"/>
<path d="M68.1535 48.3048C67.98 48.6047 68.269 49.0545 68.7892 49.3043C69.3094 49.5542 69.945 49.5042 70.1185 49.2044C70.292 48.9045 70.003 48.4546 69.4828 48.2049C68.9049 47.955 68.3269 48.0051 68.1535 48.3048Z" fill="#F4B19F"/>
<path d="M63.2462 45.2294C63.0728 45.5293 63.3618 45.979 63.8819 46.2289C64.4021 46.4788 65.0378 46.4287 65.2113 46.129C65.3847 45.8291 65.0958 45.3792 64.5756 45.1295C64.0554 44.8796 63.4775 44.9296 63.2462 45.2294Z" fill="#F4B19F"/>
<path d="M65.9245 47.5712C65.9245 47.5712 65.8713 47.4748 65.7651 47.3784C65.6589 47.282 65.3933 47.1856 65.2339 47.041C65.0746 46.8963 65.0214 46.5589 65.287 46.5108C65.5526 46.4144 65.8713 46.7036 66.2432 46.9927C66.3494 47.041 66.4025 47.1374 66.5088 47.1855C66.615 47.2337 66.7744 47.3301 66.9337 47.3301C67.2524 47.282 67.412 47.0891 67.5182 46.9446C67.7838 46.6553 67.9432 46.318 67.9963 46.077C68.1557 45.5468 68.1025 45.1611 68.0494 45.2094C67.9963 45.2094 67.9963 45.5468 67.7307 46.0287C67.6245 46.2698 67.4651 46.5589 67.1995 46.7999C67.0933 46.9446 66.9337 47.041 66.8275 47.041C66.7744 47.041 66.7744 47.041 66.6681 46.9446C66.5619 46.8963 66.5088 46.7999 66.4025 46.7518C66.2432 46.6072 66.0838 46.5108 65.8713 46.3663C65.6589 46.2217 65.3933 46.1734 65.1277 46.2698C64.8621 46.318 64.7027 46.6072 64.7558 46.7999C64.809 46.9927 64.9152 47.1374 65.0214 47.282C65.287 47.4748 65.4995 47.5229 65.6589 47.5712C65.8182 47.5229 65.8713 47.5712 65.9245 47.5712Z" fill="#F97A5D"/>
<path d="M66.8096 53.4604C66.8096 53.4604 64.6276 53.4604 63.4524 52.7769C63.4524 52.7769 64.4598 53.9334 66.4178 54.1964L66.8096 53.4604Z" fill="#EDA091"/>
<path d="M65.7791 44.8632C65.7791 44.9773 66.1075 45.0343 66.3808 45.1483C66.7092 45.2622 66.928 45.4902 67.0375 45.433C67.1469 45.3761 66.9827 44.9773 66.545 44.8065C66.1073 44.6355 65.7791 44.8065 65.7791 44.8634V44.8632Z" fill="#2C373F"/>
<path d="M69.8984 47.3267C69.9492 47.2715 69.8478 46.9398 69.5944 46.5528C69.2903 46.2211 68.9355 46.1107 68.8847 46.1659C68.8341 46.2764 69.0875 46.4975 69.3409 46.7739C69.5438 47.161 69.7972 47.382 69.8984 47.3267Z" fill="#2C373F"/>
<path d="M71.5632 46.8075C71.735 46.7063 71.9065 46.2005 71.2202 45.4923C70.5337 44.7842 69.7328 44.9359 69.6759 45.1382C69.5615 45.3405 69.8474 45.5934 70.4195 46.2005C71.0485 46.8074 71.3917 46.9592 71.5632 46.8075Z" fill="#F97A5D"/>
<path d="M68.0677 44.1539C68.1766 44.0055 68.0677 43.5109 67.1956 43.214C66.3235 42.8675 65.7783 43.2635 65.7783 43.4614C65.7783 43.6593 66.1054 43.8076 66.8686 44.1046C67.6315 44.3025 68.013 44.3025 68.0675 44.1541L68.0677 44.1539Z" fill="#F97A5D"/>
</g>
<defs>
<filter id="filter0_d" x="0" y="0" width="189.335" height="159" filterUnits="userSpaceOnUse" color-interpolation-filters="sRGB">
<feFlood flood-opacity="0" result="BackgroundImageFix"/>
<feColorMatrix in="SourceAlpha" type="matrix" values="0 0 0 0 0 0 0 0 0 0 0 0 0 0 0 0 0 0 127 0"/>
<feOffset dy="10"/>
<feGaussianBlur stdDeviation="10"/>
<feColorMatrix type="matrix" values="0 0 0 0 0 0 0 0 0 0 0 0 0 0 0 0 0 0 0.2 0"/>
<feBlend mode="normal" in2="BackgroundImageFix" result="effect1_dropShadow"/>
<feBlend mode="normal" in="SourceGraphic" in2="effect1_dropShadow" result="shape"/>
</filter>
</defs>
</svg>
