<svg width="157" height="146" viewBox="0 0 157 146" fill="none" xmlns="http://www.w3.org/2000/svg">
<g filter="url(#filter0_d)">
<path d="M64.3841 103.803C64.3841 105.016 63.1008 105.999 61.5198 105.999H33.5434C31.9648 105.999 30.6814 105.016 30.6814 103.803V87.6991C30.6814 86.4859 31.9625 85.5015 33.5434 85.5015H61.5198C63.1008 85.5015 64.3841 86.4859 64.3841 87.6991V103.803Z" fill="#6FAD03"/>
<path d="M65.0512 83.78C64.9861 82.2063 63.6888 80.9446 62.0869 80.9446H32.976C31.3741 80.9446 30.079 82.204 30.0116 83.78H30V90.932C30 91.475 30.4441 91.9164 30.9928 91.9164H64.0701C64.6188 91.9164 65.0628 91.475 65.0628 90.932V83.78H65.0512Z" fill="#9AC720"/>
<path d="M47.4816 85.5015H33.5434C31.9648 85.5015 30.6814 86.4859 30.6814 87.6991V103.803C30.6814 105.016 31.9625 105.999 33.5434 105.999H47.4816V85.5015Z" fill="#6FAD03"/>
<path d="M47.4814 80.9446H32.976C31.3741 80.9446 30.079 82.204 30.0116 83.78H30V90.932C30 91.475 30.4441 91.9164 30.9928 91.9164H47.4814V80.9446Z" fill="#9AC720"/>
<path d="M50.4691 80.9446H44.5962V106.001H50.4691V80.9446Z" fill="#9E6DB5"/>
<path d="M47.4815 80.9446H44.5962V106.001H47.4815V80.9446Z" fill="#CC66CC"/>
<path d="M40.725 88.5334L38.665 87.4357C41.8967 81.4368 45.3052 78.9943 45.4493 78.8926L46.8048 80.7852C46.7745 80.8083 43.673 83.0613 40.725 88.5334Z" fill="#CC66CC"/>
<path d="M56.6024 73.2586C55.7189 72.1933 54.4146 71.5833 53.0266 71.5833C51.9594 71.5833 50.9155 71.9553 50.0878 72.6301C48.6487 73.8086 47.8442 77.2517 47.5303 78.9063C47.2188 77.2517 46.4144 73.8086 44.9729 72.6301C44.1452 71.9553 43.1036 71.5833 42.0341 71.5833C40.6438 71.5833 39.3395 72.1933 38.4583 73.2586C36.8378 75.2159 37.1215 78.1183 39.0907 79.7313C40.1323 80.5839 42.348 81.0138 45.6727 81.0138C46.2098 81.0138 46.5492 80.9999 46.5492 80.9999L47.5257 80.9629L48.5022 80.9999C48.5022 80.9999 48.8439 81.0138 49.3787 81.0138C52.7057 81.0138 54.9214 80.5816 55.9607 79.7313C57.9392 78.1183 58.2229 75.2159 56.6024 73.2586ZM40.581 77.9357C39.6068 77.1385 39.4627 75.7012 40.2671 74.7352C40.7042 74.2084 41.3482 73.9033 42.0364 73.9033C42.5712 73.9033 43.0734 74.0836 43.4872 74.4233C44.0499 74.8831 44.6892 76.7872 45.1007 78.6844C42.5596 78.6382 41.0065 78.2847 40.581 77.9357ZM54.482 77.9357C54.0565 78.2847 52.5034 78.6382 49.9599 78.6844C50.3738 76.7849 51.0108 74.8831 51.5735 74.4233C51.9896 74.0859 52.4918 73.9033 53.0289 73.9033C53.7148 73.9033 54.3634 74.206 54.7982 74.7352C55.598 75.7012 55.4562 77.1385 54.482 77.9357Z" fill="#CC66CC"/>
<path d="M47.5023 78.7585C47.1722 77.0577 46.377 73.7763 44.9751 72.6279C44.1474 71.9531 43.1058 71.5811 42.0363 71.5811C40.646 71.5811 39.3417 72.1911 38.4605 73.2564C36.84 75.2137 37.1237 78.1161 39.0929 79.7291C40.1345 80.5818 42.3502 81.0116 45.6749 81.0116C46.212 81.0116 46.5514 80.9977 46.5514 80.9977L47.4977 80.9607V78.7585H47.5023ZM40.5809 77.9359C39.6067 77.1386 39.4626 75.7013 40.267 74.7353C40.7041 74.2085 41.3481 73.9034 42.0363 73.9034C42.5711 73.9034 43.0732 74.0837 43.4871 74.4234C44.0497 74.8832 44.6891 76.7874 45.1006 78.6846C42.5594 78.6383 41.0063 78.2848 40.5809 77.9359Z" fill="#CC66CC"/>
<path d="M126.442 88.4823C127.374 87.2299 127.107 85.4482 125.849 84.5216L112.413 75.0079C111.307 74.1968 109.793 74.3008 108.807 75.1881L106.917 73.797C107.48 72.6023 107.138 71.1303 106.033 70.3169L103.578 68.5098C102.472 67.6964 100.956 67.8027 99.97 68.6877L96.7197 66.2983L93.6182 70.4625L123.573 92.3414L126.442 88.4823Z" fill="#FFCC00"/>
<path d="M93.6181 70.46L90.3701 74.8251L93.6204 77.2168C93.0555 78.4115 93.3972 79.8859 94.5039 80.697L96.9591 82.504C98.0658 83.3151 99.5816 83.2111 100.567 82.3261L102.458 83.7172C101.893 84.9119 102.237 86.3839 103.341 87.1973L116.775 96.711C118.035 97.6354 119.827 97.3696 120.76 96.1172L123.573 92.3413L93.6181 70.46Z" fill="#FFA600"/>
<path d="M88.1125 26.3324C73.6907 15.7233 53.2728 18.7575 42.5989 33.0916C31.9273 47.428 34.9753 67.7217 49.4018 78.3285C63.8235 88.9375 84.2414 85.9034 94.9153 71.5693C105.589 57.2352 102.537 36.9391 88.1125 26.3324ZM91.493 69.0528C82.2164 81.5151 64.4676 84.1494 51.9313 74.9315C39.3974 65.7067 36.7446 48.0704 46.0189 35.6081C55.2979 23.148 73.042 20.5114 85.5829 29.7316C98.1192 38.9518 100.77 56.5927 91.493 69.0528Z" fill="#FFCC00"/>
<path d="M46.019 35.6081C36.7423 48.0681 39.3951 65.7067 51.9313 74.9292C64.4676 84.1495 82.2164 81.5128 91.493 69.0505C100.77 56.5928 98.1168 38.9519 85.5806 29.7316C73.0444 20.5114 55.2979 23.1481 46.019 35.6081Z" fill="#5CD1E0"/>
<path d="M67.104 28.3936C76.1853 27.7859 85.2457 32.3313 89.912 40.7681C90.4793 41.7918 90.1026 43.0767 89.0726 43.6405C88.0427 44.202 86.7523 43.8277 86.1827 42.8063C80.9004 33.2556 68.785 29.7593 59.1759 35.0095C58.1459 35.5711 56.8532 35.199 56.2859 34.1753C55.721 33.1516 56.0953 31.8668 57.1229 31.303C60.3012 29.5675 63.7049 28.6178 67.104 28.3936Z" fill="white"/>
<mask id="mask0" mask-type="alpha" maskUnits="userSpaceOnUse" x="40" y="24" width="58" height="57">
<path d="M46.019 35.6081C36.7423 48.0681 39.3951 65.7067 51.9313 74.9292C64.4676 84.1495 82.2164 81.5128 91.493 69.0505C100.77 56.5928 98.1168 38.9519 85.5806 29.7316C73.0444 20.5114 55.2979 23.1481 46.019 35.6081Z" fill="#5CD1E0"/>
</mask>
<g mask="url(#mask0)">
<path d="M76.6645 92.9191C76.6645 94.4558 75.0393 95.699 73.0375 95.699H37.598C35.5962 95.699 33.9734 94.4558 33.9734 92.9191V72.5191C33.9734 70.9824 35.5962 69.7368 37.598 69.7368H73.0375C75.0416 69.7368 76.6645 70.9824 76.6645 72.5191V92.9191Z" fill="#6FAD03"/>
<path d="M77.5108 67.5554C77.4271 65.5611 75.7856 63.9644 73.7559 63.9644H36.8796C34.8499 63.9644 33.2108 65.5611 33.1248 67.5554H33.1108V76.6162C33.1108 77.3048 33.6758 77.8617 34.3686 77.8617H76.2669C76.9621 77.8617 77.5224 77.3025 77.5224 76.6162V67.5554H77.5108Z" fill="#9AC720"/>
<path d="M55.2538 69.7368H37.598C35.5962 69.7368 33.9734 70.9824 33.9734 72.5191V92.9191C33.9734 94.4558 35.5962 95.699 37.598 95.699H55.2538V69.7368Z" fill="#6FAD03"/>
<path d="M55.2538 63.9644H36.8796C34.8499 63.9644 33.2108 65.5611 33.1248 67.5554H33.1108V76.6162C33.1108 77.3048 33.6758 77.8617 34.3686 77.8617H55.2538V63.9644Z" fill="#9AC720"/>
<path d="M59.0388 63.9644H51.5989V95.7014H59.0388V63.9644Z" fill="#9E6DB5"/>
<path d="M55.2537 63.9644H51.5989V95.7014H55.2537V63.9644Z" fill="#CC66CC"/>
<path d="M46.698 73.5775L44.0894 72.1864C48.1813 64.5884 52.5011 61.4918 52.6824 61.3647L54.3983 63.7611C54.3564 63.7911 50.4319 66.645 46.698 73.5775Z" fill="#CC66CC"/>
<path d="M66.8091 54.2266C65.6884 52.877 64.0377 52.1052 62.28 52.1052C60.9269 52.1052 59.6063 52.5743 58.5577 53.4293C56.735 54.9221 55.7166 59.2827 55.3167 61.3786C54.9215 59.2827 53.9032 54.9221 52.0781 53.4293C51.0318 52.5743 49.7089 52.1052 48.3558 52.1052C46.5935 52.1052 44.9427 52.877 43.8267 54.2266C41.7738 56.7061 42.1318 60.3826 44.6289 62.4254C45.9471 63.5046 48.7557 64.0499 52.9662 64.0499C53.6474 64.0499 54.0775 64.0338 54.0775 64.0338L55.3144 63.9852L56.5513 64.0338C56.5513 64.0338 56.9837 64.0499 57.6626 64.0499C61.8778 64.0499 64.6817 63.5046 66 62.4254C68.4993 60.3849 68.8597 56.7084 66.8091 54.2266ZM46.5121 60.1516C45.2775 59.1417 45.0962 57.3208 46.1145 56.096C46.6678 55.4282 47.4839 55.0423 48.3558 55.0423C49.0323 55.0423 49.6694 55.2711 50.1948 55.7009C50.9086 56.2855 51.7177 58.6934 52.2385 61.099C49.0207 61.0412 47.0515 60.5952 46.5121 60.1516ZM64.1214 60.1516C63.582 60.5952 61.6151 61.0412 58.395 61.1013C58.9181 58.6957 59.7272 56.2855 60.4386 55.7032C60.9641 55.2757 61.6011 55.0446 62.28 55.0446C63.1495 55.0446 63.9703 55.4282 64.5213 56.0983C65.5373 57.3231 65.3559 59.1417 64.1214 60.1516Z" fill="#CC66CC"/>
<path d="M55.2795 61.1937C54.8634 59.04 53.8543 54.8828 52.0781 53.4293C51.0318 52.5743 49.7089 52.1052 48.3558 52.1052C46.5935 52.1052 44.9427 52.877 43.8267 54.2266C41.7738 56.7061 42.1318 60.3826 44.6289 62.4254C45.9471 63.5046 48.7557 64.0499 52.9662 64.0499C53.6474 64.0499 54.0775 64.0338 54.0775 64.0338L55.2772 63.9852V61.1937H55.2795ZM46.5121 60.1516C45.2775 59.1417 45.0962 57.3208 46.1145 56.096C46.6678 55.4282 47.4839 55.0423 48.3558 55.0423C49.0323 55.0423 49.6694 55.2711 50.1948 55.7009C50.9086 56.2855 51.7177 58.6934 52.2385 61.099C49.0207 61.0412 47.0515 60.5952 46.5121 60.1516Z" fill="#CC66CC"/>
</g>
</g>
<defs>
<filter id="filter0_d" x="0" y="0" width="156.998" height="146.001" filterUnits="userSpaceOnUse" color-interpolation-filters="sRGB">
<feFlood flood-opacity="0" result="BackgroundImageFix"/>
<feColorMatrix in="SourceAlpha" type="matrix" values="0 0 0 0 0 0 0 0 0 0 0 0 0 0 0 0 0 0 127 0"/>
<feOffset dy="10"/>
<feGaussianBlur stdDeviation="15"/>
<feColorMatrix type="matrix" values="0 0 0 0 0 0 0 0 0 0 0 0 0 0 0 0 0 0 0.2 0"/>
<feBlend mode="normal" in2="BackgroundImageFix" result="effect1_dropShadow"/>
<feBlend mode="normal" in="SourceGraphic" in2="effect1_dropShadow" result="shape"/>
</filter>
</defs>
</svg>
