<svg width="98" height="74" viewBox="0 0 98 74" fill="none" xmlns="http://www.w3.org/2000/svg">
<path d="M75.966 57.2917C75.966 59.631 73.901 61.5211 71.3545 61.5211H26.2972C23.7527 61.5211 21.6897 59.631 21.6897 57.2917V26.2609C21.6897 23.9216 23.7527 22.0273 26.2972 22.0273H71.3545C73.901 22.0273 75.966 23.9216 75.966 26.2609V57.2917Z" fill="#FFA600"/>
<path d="M77.0418 19.7508C76.937 17.6676 74.8479 15.999 72.2671 15.999H25.3845C22.8037 15.999 20.7186 17.6656 20.6098 19.7508H20.5917V29.2178C20.5917 29.9373 21.3089 30.5206 22.1913 30.5206H75.4603C76.3447 30.5206 77.0579 29.9373 77.0579 29.2178V19.7508H77.0418Z" fill="#FFCC00"/>
<path d="M48.7442 15.999H25.3845C22.8037 15.999 20.7186 17.6656 20.6098 19.7508H20.5917V29.2178C20.5917 29.9373 21.3089 30.5206 22.1913 30.5206H48.7442V15.999Z" fill="#FFCC00"/>
<path d="M53.5552 15.999H44.0964V61.5209H53.5552V15.999Z" fill="#9E6DB5"/>
<path d="M48.7442 15.999H44.0964V61.5209H48.7442V15.999Z" fill="#CC66CC"/>
<path d="M37.8651 26.0412L34.547 24.588C39.7508 16.6494 45.2407 13.4138 45.4724 13.2817L47.6562 15.7857C47.6059 15.8162 42.6136 18.7997 37.8651 26.0412Z" fill="#CC66CC"/>
<path d="M63.435 2.85757C62.0127 1.04059 59.9134 0 57.6772 0C55.9567 0 54.2765 0.632079 52.9448 1.78445C50.628 3.79451 49.3326 9.66614 48.8249 12.4892C48.3212 9.66614 47.0258 3.79451 44.7069 1.78445C43.3773 0.632079 41.6971 0 39.9766 0C37.7383 0 35.6391 1.04059 34.2187 2.85757C31.6098 6.19885 32.0651 11.1498 35.2382 13.8976C36.9143 15.3508 40.4843 16.0865 45.8392 16.0865C46.7055 16.0865 47.2514 16.0642 47.2514 16.0642L48.8249 15.9991L50.3983 16.0642C50.3983 16.0642 50.9483 16.0865 51.8106 16.0865C57.1695 16.0865 60.7354 15.3508 62.4116 13.8976C65.5846 11.1498 66.044 6.19885 63.435 2.85757ZM37.6315 10.8388C36.0621 9.47915 35.8325 7.02807 37.1259 5.37775C37.829 4.4774 38.8665 3.96116 39.9766 3.96116C40.8368 3.96116 41.6447 4.27009 42.3156 4.84729C43.2242 5.63384 44.2516 8.87756 44.9145 12.1172C40.8187 12.0359 38.3185 11.4343 37.6315 10.8388ZM60.0182 10.8388C59.3332 11.4343 56.831 12.0359 52.7373 12.1172C53.4021 8.87756 54.4316 5.6318 55.3362 4.84729C56.005 4.27009 56.8149 3.96116 57.6792 3.96116C58.7852 3.96116 59.8268 4.4774 60.5299 5.37775C61.8173 7.02604 61.5896 9.47712 60.0182 10.8388Z" fill="#CC66CC"/>
<path d="M48.7785 12.2412C48.2487 9.34095 46.9674 3.74166 44.709 1.78445C43.3773 0.632079 41.6971 0 39.9766 0C37.7383 0 35.6391 1.04059 34.2187 2.85757C31.6098 6.19885 32.0651 11.1498 35.2382 13.8976C36.9143 15.3508 40.4843 16.0865 45.8392 16.0865C46.7055 16.0865 47.2514 16.0642 47.2514 16.0642L48.7765 15.9991V12.2412H48.7785ZM37.6315 10.8388C36.0621 9.47915 35.8325 7.02807 37.1259 5.37775C37.829 4.4774 38.8665 3.96116 39.9766 3.96116C40.8368 3.96116 41.6447 4.27009 42.3156 4.84729C43.2242 5.63384 44.2516 8.87756 44.9145 12.1172C40.8187 12.0359 38.3185 11.4343 37.6315 10.8388Z" fill="#CC66CC"/>
<path d="M97.1439 71.1851C97.1439 72.7399 95.5261 73.996 93.5316 73.996H58.2352C56.2427 73.996 54.627 72.7399 54.627 71.1851V50.5643C54.627 49.0095 56.2427 47.7515 58.2352 47.7515H93.5296C95.5241 47.7515 97.1418 49.0116 97.1418 50.5643V71.1851H97.1439Z" fill="#0AB1C8"/>
<path d="M97.9859 45.5464C97.9033 43.5302 96.2674 41.9165 94.2447 41.9165H57.5219C55.4992 41.9165 53.8673 43.5302 53.7807 45.5464H53.7666V54.7044C53.7666 55.3995 54.3287 55.9645 55.0197 55.9645H96.7489C97.4419 55.9645 98 55.3995 98 54.7044V45.5464H97.9859Z" fill="#5CD1E0"/>
<path d="M75.8189 47.7495H58.2352C56.2427 47.7495 54.627 49.0096 54.627 50.5624V71.1832C54.627 72.738 56.2427 73.994 58.2352 73.994H75.8189V47.7495Z" fill="#0AB1C8"/>
<path d="M75.8189 41.9165H57.5199C55.4972 41.9165 53.8654 43.5302 53.7788 45.5464H53.7646V54.7044C53.7646 55.3995 54.3267 55.9645 55.0178 55.9645H75.8189V41.9165Z" fill="#5CD1E0"/>
<path d="M79.5883 41.9165H72.1785V73.9981H79.5883V41.9165Z" fill="#9E6DB5"/>
<path d="M75.8189 41.9165H72.1785V73.9981H75.8189V41.9165Z" fill="#CC66CC"/>
<path d="M67.297 51.6333L64.6981 50.2289C68.7737 42.5485 73.075 39.4186 73.2563 39.2905L74.9667 41.7132C74.9264 41.7396 71.018 44.6256 67.297 51.6333Z" fill="#CC66CC"/>
<path d="M87.3285 32.0735C86.2144 30.7097 84.5684 29.9272 82.8177 29.9272C81.4699 29.9272 80.1544 30.4028 79.1108 31.2666C77.2956 32.7767 76.2802 37.1829 75.8833 39.3027C75.4885 37.1829 74.4751 32.7767 72.6579 31.2666C71.6143 30.4028 70.2988 29.9272 68.951 29.9272C67.1962 29.9272 65.5523 30.7077 64.4402 32.0735C62.3954 34.5815 62.754 38.2967 65.238 40.3616C66.5516 41.453 69.3479 42.0058 73.5423 42.0058C74.2213 42.0058 74.6484 41.9876 74.6484 41.9876L75.8813 41.9388L77.1143 41.9876C77.1143 41.9876 77.5454 42.0058 78.2203 42.0058C82.4188 42.0058 85.2111 41.453 86.5247 40.3616C89.0127 38.2967 89.3713 34.5794 87.3285 32.0735ZM67.1157 38.063C65.8847 37.0427 65.7054 35.2013 66.7188 33.9636C67.2688 33.2868 68.0827 32.8986 68.951 32.8986C69.6239 32.8986 70.2585 33.1303 70.7823 33.5632C71.4935 34.1526 72.2993 36.5895 72.8171 39.0202C69.6118 38.9613 67.6515 38.5101 67.1157 38.063ZM84.651 38.063C84.1131 38.5101 82.1549 38.9613 78.9476 39.0223C79.4694 36.5895 80.2753 34.1547 80.9824 33.5653C81.5062 33.1324 82.1408 32.9007 82.8177 32.9007C83.684 32.9007 84.5 33.2888 85.0499 33.9656C86.0613 35.2013 85.882 37.0427 84.651 38.063Z" fill="#CC66CC"/>
<path d="M75.8451 39.1158C75.4301 36.937 74.4268 32.736 72.6579 31.2666C71.6143 30.4028 70.2988 29.9272 68.951 29.9272C67.1962 29.9272 65.5523 30.7077 64.4402 32.0735C62.3954 34.5815 62.754 38.2967 65.238 40.3616C66.5516 41.453 69.3479 42.0058 73.5423 42.0058C74.2213 42.0058 74.6484 41.9876 74.6484 41.9876L75.8431 41.9388V39.1158H75.8451ZM67.1157 38.063C65.8847 37.0427 65.7054 35.2013 66.7188 33.9636C67.2688 33.2868 68.0827 32.8986 68.951 32.8986C69.6239 32.8986 70.2585 33.1303 70.7823 33.5632C71.4935 34.1526 72.2993 36.5895 72.8171 39.0202C69.6118 38.9613 67.6515 38.5101 67.1157 38.063Z" fill="#CC66CC"/>
<path d="M33.7572 67.8559C33.7572 69.0652 32.4981 70.0428 30.9448 70.0428H3.47723C1.92596 70.0428 0.668823 69.0652 0.668823 67.8559V51.808C0.668823 50.5988 1.92596 49.6191 3.47723 49.6191H30.9448C32.4981 49.6191 33.7572 50.5988 33.7572 51.808V67.8559Z" fill="#6FAD03"/>
<path d="M34.412 47.9039C34.3475 46.3349 33.0743 45.0789 31.5009 45.0789H2.92122C1.34779 45.0789 0.0765562 46.3349 0.0100732 47.9039H0V55.0316C0 55.5722 0.437176 56.0112 0.975084 56.0112H33.449C33.9889 56.0112 34.4221 55.5722 34.4221 55.0316V47.9039H34.412Z" fill="#9AC720"/>
<path d="M17.1627 49.6191H3.47723C1.92596 49.6191 0.668823 50.5988 0.668823 51.808V67.8559C0.668823 69.0652 1.92596 70.0428 3.47723 70.0428H17.1627V49.6191Z" fill="#6FAD03"/>
<path d="M17.1627 45.0789H2.92122C1.34779 45.0789 0.0765562 46.3349 0.0100732 47.9039H0V55.0316C0 55.5722 0.437176 56.0112 0.975084 56.0112H17.1627V45.0789Z" fill="#9AC720"/>
<path d="M20.096 45.0789H14.3301V70.047H20.096V45.0789Z" fill="#9E6DB5"/>
<path d="M17.1627 45.0789H14.3301V70.047H17.1627V45.0789Z" fill="#CC66CC"/>
<path d="M10.5305 52.6414L8.50781 51.5479C11.6809 45.5706 15.0272 43.1358 15.1682 43.0342L16.4999 44.9203C16.4676 44.9426 13.4255 47.1884 10.5305 52.6414Z" fill="#CC66CC"/>
<path d="M26.1177 37.4187C25.2494 36.3578 23.9701 35.748 22.6082 35.748C21.5606 35.748 20.5352 36.1179 19.7233 36.7907C18.311 37.9654 17.5213 41.3961 17.211 43.0444C16.9048 41.3941 16.1151 37.9654 14.7008 36.7907C13.8889 36.1179 12.8655 35.748 11.8158 35.748C10.4499 35.748 9.17062 36.3557 8.30634 37.4187C6.71477 39.3698 6.99279 42.2619 8.92684 43.8675C9.94827 44.7171 12.1241 45.1459 15.3898 45.1459C15.9176 45.1459 16.2521 45.1317 16.2521 45.1317L17.211 45.0931L18.17 45.1317C18.17 45.1317 18.5064 45.1459 19.0323 45.1459C22.3 45.1459 24.4738 44.7171 25.4952 43.8675C27.4293 42.2619 27.7093 39.3698 26.1177 37.4187ZM10.3875 42.079C9.4305 41.2843 9.29149 39.8515 10.0792 38.8902C10.5063 38.3638 11.1409 38.063 11.8178 38.063C12.3417 38.063 12.8352 38.2438 13.2442 38.5812C13.7982 39.0405 14.4248 40.9368 14.8277 42.829C12.3316 42.7802 10.8065 42.4286 10.3875 42.079ZM24.0346 42.079C23.6156 42.4265 22.0925 42.7781 19.5964 42.8269C20.0013 40.9348 20.6299 39.0385 21.1799 38.5792C21.5888 38.2418 22.0804 38.0609 22.6082 38.0609C23.2831 38.0609 23.9178 38.3638 24.3469 38.8881C25.1326 39.8535 24.9936 41.2864 24.0346 42.079Z" fill="#CC66CC"/>
<path d="M17.1829 42.9C16.8585 41.205 16.0789 37.9348 14.7029 36.7926C13.891 36.1199 12.8675 35.75 11.8179 35.75C10.452 35.75 9.17269 36.3577 8.30841 37.4206C6.71685 39.3718 6.99487 42.2639 8.92892 43.8695C9.95034 44.719 12.1261 45.1479 15.3919 45.1479C15.9197 45.1479 16.2541 45.1336 16.2541 45.1336L17.1849 45.095V42.9H17.1829ZM10.3875 42.0789C9.43056 41.2843 9.29155 39.8514 10.0793 38.8901C10.5064 38.3637 11.141 38.0629 11.8179 38.0629C12.3417 38.0629 12.8353 38.2438 13.2443 38.5812C13.7983 39.0405 14.4248 40.9367 14.8278 42.8289C12.3316 42.7801 10.8066 42.4285 10.3875 42.0789Z" fill="#CC66CC"/>
</svg>
