<svg width="144" height="134" viewBox="0 0 144 134" fill="none" xmlns="http://www.w3.org/2000/svg">
<path d="M107.205 74.18C107.205 77.2098 104.519 79.6578 101.204 79.6578H42.5948C39.2863 79.6578 36.6006 77.2098 36.6006 74.18V34.0031C36.6006 30.9733 39.2863 28.522 42.5948 28.522H101.204C104.516 28.522 107.205 30.9767 107.205 34.0031V74.18Z" fill="#F7A418"/>
<path d="M108.604 25.5729C108.467 22.8727 105.751 20.7139 102.393 20.7139H41.4091C38.0504 20.7139 35.3413 22.8727 35.1973 25.5729H35.1738V37.8298C35.1738 38.7612 36.1081 39.5144 37.2534 39.5144H106.548C107.7 39.5144 108.628 38.7578 108.628 37.8298V25.5729H108.604Z" fill="#FFCC07"/>
<path d="M71.7954 20.7139H41.4091C38.0504 20.7139 35.3413 22.8727 35.1973 25.5729H35.1738V37.8298C35.1738 38.7612 36.1081 39.5144 37.2534 39.5144H71.7954V20.7139Z" fill="#FFCC07"/>
<path d="M78.0585 20.7139H65.752V79.6578H78.0585V20.7139Z" fill="#9058A5"/>
<path d="M71.7964 20.7139H65.752V79.6578H71.7964V20.7139Z" fill="#B06CAA"/>
<path d="M57.6436 33.7172L53.3271 31.8375C60.0949 21.5579 67.2377 17.3714 67.5391 17.1965L70.3788 20.4381C70.3118 20.4785 63.8187 24.3422 57.6436 33.7172Z" fill="#B06CAA"/>
<path d="M90.9067 3.70228C89.0548 1.34842 86.3223 0 83.4156 0C81.1787 0 78.992 0.820487 77.2607 2.31014C74.2468 4.91283 72.5591 12.5158 71.9027 16.171C71.2497 12.5158 69.562 4.91283 66.5481 2.31014C64.8135 0.820487 62.6268 0 60.3898 0C57.4765 0 54.7472 1.34842 52.8988 3.70228C49.5032 8.02664 50.0959 14.4392 54.2248 17.9969C56.4049 19.88 61.0495 20.8316 68.0149 20.8316C69.14 20.8316 69.8533 20.8014 69.8533 20.8014L71.8994 20.7173L73.9454 20.8014C73.9454 20.8014 74.6621 20.8316 75.7839 20.8316C82.7559 20.8316 87.3939 19.88 89.5739 17.9969C93.7029 14.4359 94.2989 8.02664 90.9067 3.70228ZM57.3392 14.0323C55.2964 12.2703 54.9984 9.09597 56.6828 6.96069C57.597 5.79385 58.9465 5.12468 60.3898 5.12468C61.5083 5.12468 62.5598 5.52483 63.4305 6.27134C64.6126 7.29022 65.9487 11.4902 66.8093 15.6868C61.4849 15.5825 58.2333 14.8057 57.3392 14.0323ZM86.4629 14.0323C85.5722 14.8057 82.3172 15.5825 76.9928 15.6868C77.8567 11.4935 79.1962 7.29022 80.3716 6.27134C81.2423 5.52483 82.2938 5.12468 83.419 5.12468C84.8589 5.12468 86.2118 5.79385 87.126 6.96069C88.8003 9.09933 88.5023 12.2737 86.4629 14.0323Z" fill="#B06CAA"/>
<path d="M71.8391 15.8482C71.1493 12.0921 69.4849 4.84222 66.5448 2.31014C64.8135 0.820487 62.6268 0 60.3898 0C57.4765 0 54.7472 1.34842 52.8988 3.70228C49.5032 8.02664 50.0959 14.4392 54.2248 17.9969C56.4049 19.88 61.0495 20.8316 68.0149 20.8316C69.14 20.8316 69.8533 20.8014 69.8533 20.8014L71.8391 20.7173V15.8482ZM57.3392 14.0323C55.2964 12.2703 54.9984 9.09597 56.6828 6.96069C57.597 5.79385 58.9465 5.12468 60.3898 5.12468C61.5083 5.12468 62.5598 5.52483 63.4305 6.27134C64.6126 7.29022 65.9487 11.4902 66.8093 15.6868C61.4849 15.5825 58.2333 14.8057 57.3392 14.0323Z" fill="#B06CAA"/>
<path d="M141.298 68.459C139.721 67.7524 137.926 69.1701 136.061 71.7663C134.201 71.8894 132.11 74.4354 129.976 78.0756C127.611 78.7001 124.907 82.9352 122.239 88.2005C119.021 94.5554 117.929 99.7933 123.379 97.5231C128.829 95.2506 135.579 87.813 138.799 81.4559C142.013 75.101 143.961 69.6511 141.298 68.459Z" fill="#E5B2A0"/>
<path d="M129.915 78.1396C129.68 78.6548 129.437 79.1654 129.195 79.6737L128.467 81.2031C127.98 82.222 127.49 83.2386 127.014 84.2597C126.534 85.2809 126.066 86.302 125.625 87.3346C125.178 88.3694 124.761 89.4111 124.397 90.4801C124.434 90.202 124.482 89.9239 124.543 89.6481C124.596 89.3723 124.664 89.0965 124.739 88.823C124.883 88.2782 125.052 87.7403 125.239 87.2047C125.615 86.1379 126.054 85.0917 126.539 84.0637C127.019 83.0357 127.543 82.0282 128.101 81.0367C128.38 80.5398 128.671 80.0475 128.969 79.5643C129.268 79.0833 129.578 78.6046 129.915 78.1396Z" fill="#A69C24"/>
<path d="M135.995 71.8303C135.163 73.1774 134.406 74.5564 133.676 75.9491C133.495 76.2956 133.318 76.6443 133.138 76.9976C132.959 77.3464 132.782 77.6951 132.604 78.0484C132.432 78.3994 132.255 78.7505 132.081 79.1038C131.906 79.4571 131.739 79.8081 131.569 80.1637C130.89 81.5791 130.235 83.0015 129.658 84.4511C129.371 85.176 129.102 85.9076 128.877 86.6507C128.763 87.0223 128.658 87.3983 128.574 87.7767C128.53 87.9659 128.489 88.1551 128.457 88.3488C128.421 88.5403 128.394 88.7318 128.372 88.9255C128.365 88.7295 128.367 88.5357 128.38 88.3397C128.387 88.1437 128.406 87.95 128.43 87.7539C128.474 87.3642 128.549 86.9789 128.627 86.5937C128.797 85.8256 129.017 85.0711 129.274 84.3235C129.784 82.8328 130.41 81.3831 131.096 79.9608C131.266 79.6075 131.44 79.2519 131.62 78.9009C131.799 78.5499 131.979 78.1989 132.163 77.8478C132.534 77.1503 132.917 76.4574 133.315 75.7736C133.718 75.0921 134.135 74.4151 134.574 73.7564C135.023 73.0931 135.486 72.4435 135.995 71.8303Z" fill="#A69C24"/>
<path d="M144 69.3682C140.183 68.7186 138.664 68.8736 134.517 81.4534C132.47 87.651 124.238 87.9496 121.212 87.7649C118.187 87.5803 97.6106 83.8034 92.2458 101.959C87.8559 116.811 84.7709 129.375 83.7959 133.45C90.5723 133.343 97.1377 132.438 103.397 130.824C103.339 125.146 103.511 106.77 108.146 105.295C114.928 103.135 126.164 99.3441 128.376 98.0654C131.393 96.3194 138.895 87.8766 139.54 86.6139C140.187 85.3557 143.976 71.7433 144 69.3682Z" fill="#FFC5B1"/>
<path d="M138.586 83.8219C137.366 81.5813 134.301 81.9482 131.264 82.9831C130.146 87.0016 124.481 91.4007 116.8 93.7622C110.336 95.7452 104.118 95.7726 100.264 94.1679C99.1383 98.8656 104.784 104.359 116.569 98.6765C119.979 97.033 122.754 94.0516 125.162 93.2767C127.573 92.4994 141.531 89.2217 138.586 83.8219Z" fill="#E6B2A0"/>
<path d="M116.798 93.7598C124.479 91.4007 130.147 86.9992 131.262 82.9807C127.248 84.3461 122.861 87.1064 120.727 87.7104C116.98 88.768 110.802 86.3838 103.466 90.2769C101.681 91.2252 100.621 92.6543 100.262 94.1655C104.116 95.7725 110.337 95.7451 116.798 93.7598Z" fill="#FFC5B1"/>
<path d="M135.281 88.1255C133.326 88.9005 131.265 84.319 133.217 83.544C135.17 82.7667 137.214 83.1634 137.784 84.4307C138.349 85.6934 137.231 87.3483 135.281 88.1255Z" fill="#FFC5B1"/>
<path d="M2.70234 68.459C4.28123 67.7524 6.07356 69.1701 7.94349 71.7663C9.8013 71.8894 11.8944 74.4354 14.0287 78.0756C16.3909 78.7001 19.0976 82.9352 21.7631 88.2005C24.9815 94.5554 26.0753 99.7933 20.6231 97.5231C15.1758 95.2506 8.42371 87.813 5.20529 81.4559C1.98687 75.101 0.0393225 69.6511 2.70234 68.459Z" fill="#E5B2A0"/>
<path d="M14.083 78.1396C14.3183 78.6548 14.5632 79.1654 14.8058 79.6737L15.5334 81.2031C16.0209 82.222 16.5083 83.2386 16.9861 84.2597C17.4664 85.2809 17.9344 86.302 18.3759 87.3346C18.8221 88.3694 19.2368 89.4111 19.6031 90.4801C19.5667 90.202 19.5158 89.9239 19.4576 89.6481C19.4018 89.3723 19.3339 89.0965 19.2611 88.823C19.1156 88.2782 18.9458 87.7403 18.7591 87.2047C18.3831 86.1379 17.9441 85.0917 17.4615 84.0637C16.9789 83.0357 16.455 82.0282 15.8996 81.0367C15.6182 80.5398 15.3296 80.0475 15.0289 79.5643C14.7306 79.0833 14.4177 78.6046 14.083 78.1396Z" fill="#A69C24"/>
<path d="M8 71.8301C8.83432 73.1772 9.59102 74.5562 10.3186 75.9489C10.5029 76.2953 10.6776 76.6441 10.8595 76.9974C11.0365 77.3461 11.216 77.6949 11.3906 78.0482C11.5652 78.3992 11.7423 78.7502 11.9145 79.1035C12.0891 79.4568 12.2589 79.8078 12.4287 80.1634C13.1053 81.5789 13.7602 83.0012 14.3374 84.4509C14.6236 85.1757 14.8952 85.9074 15.1184 86.6505C15.2348 87.022 15.3366 87.3981 15.4215 87.7765C15.4676 87.9657 15.5064 88.1548 15.5379 88.3486C15.5743 88.5401 15.6034 88.7315 15.6228 88.9253C15.6325 88.7292 15.6277 88.5355 15.618 88.3395C15.6083 88.1435 15.5889 87.9497 15.567 87.7537C15.521 87.3639 15.4482 86.9787 15.3682 86.5935C15.1984 85.8253 14.9777 85.0709 14.723 84.3232C14.2137 82.8325 13.5855 81.3829 12.8992 79.9606C12.7294 79.6073 12.5548 79.2517 12.3777 78.9007C12.1958 78.5496 12.0164 78.1986 11.832 77.8476C11.4634 77.1501 11.0802 76.4572 10.68 75.7734C10.2798 75.0918 9.86023 74.4149 9.42125 73.7561C8.97498 73.0928 8.50932 72.4432 8 71.8301Z" fill="#A69C24"/>
<path d="M60.2065 133.452C59.2315 129.377 56.1465 116.813 51.7567 101.961C46.3942 83.8057 25.8153 87.5848 22.7933 87.7672C19.7665 87.9518 11.5349 87.6509 9.48791 81.4556C5.33816 68.8736 3.81748 68.7186 0 69.3682C0.0242534 71.741 3.81505 85.3556 4.46262 86.6138C5.11261 87.8766 12.6093 96.3194 15.6264 98.0653C17.8383 99.3441 29.0749 103.135 35.8562 105.295C40.491 106.772 40.6632 125.149 40.6074 130.824C46.8648 132.44 53.4326 133.345 60.2065 133.452Z" fill="#FFC5B1"/>
<path d="M5.4131 83.8219C6.63547 81.5813 9.69867 81.9482 12.7376 82.9831C13.8557 87.0016 19.5189 91.4007 27.1999 93.7622C33.6658 95.7452 39.8844 95.7726 43.7358 94.1679C44.8636 98.8656 39.2174 104.359 27.4327 98.6765C24.0203 97.033 21.2481 94.0516 18.8398 93.2767C16.429 92.4994 2.47117 89.2217 5.4131 83.8219Z" fill="#E6B2A0"/>
<path d="M27.1996 93.7598C19.5185 91.4007 13.853 86.9992 12.7373 82.9807C16.7512 84.3461 21.1387 87.1064 23.273 87.7104C27.0201 88.768 33.195 86.3838 40.5316 90.2769C42.3167 91.2252 43.3766 92.6543 43.7355 94.1655C39.8841 95.7725 33.6655 95.7451 27.1996 93.7598Z" fill="#FFC5B1"/>
<path d="M8.72091 88.1255C10.6757 88.9005 12.7373 84.319 10.7849 83.544C8.83005 82.7667 6.7855 83.1634 6.21797 84.4307C5.65044 85.6934 6.76852 87.3483 8.72091 88.1255Z" fill="#FFC5B1"/>
</svg>
