<svg width="56" height="50" viewBox="0 0 56 50" fill="none" xmlns="http://www.w3.org/2000/svg">
<path d="M19.8509 48.3822C19.8509 49.0826 19.11 49.6496 18.1972 49.6496H2.04565C1.13425 49.6496 0.393311 49.0826 0.393311 48.3822V39.0848C0.393311 38.3844 1.1329 37.816 2.04565 37.816H18.1972C19.11 37.816 19.8509 38.3844 19.8509 39.0848V48.3822Z" fill="#6FAD03"/>
<path d="M20.2361 36.8221C20.1985 35.9136 19.4496 35.1852 18.5247 35.1852H1.71811C0.793284 35.1852 0.0456373 35.9123 0.00671137 36.8221H0V40.9512C0 41.2647 0.256374 41.5195 0.573151 41.5195H19.6697C19.9865 41.5195 20.2428 41.2647 20.2428 40.9512V36.8221H20.2361Z" fill="#9AC720"/>
<path d="M10.0926 37.816H2.04565C1.13425 37.816 0.393311 38.3844 0.393311 39.0848V48.3822C0.393311 49.0826 1.1329 49.6496 2.04565 49.6496H10.0926V37.816Z" fill="#6FAD03"/>
<path d="M10.0926 35.1852H1.71811C0.793284 35.1852 0.0456373 35.9123 0.00671137 36.8221H0V40.9512C0 41.2647 0.256374 41.5195 0.573151 41.5195H10.0926V35.1852Z" fill="#9AC720"/>
<path d="M11.8176 35.1852H8.427V49.651H11.8176V35.1852Z" fill="#9E6DB5"/>
<path d="M10.0928 35.1852H8.427V49.651H10.0928V35.1852Z" fill="#CC66CC"/>
<path d="M6.19194 39.5664L5.00269 38.9327C6.86845 35.4693 8.83622 34.0592 8.91944 34.0005L9.70199 35.0931C9.68454 35.1065 7.89394 36.4072 6.19194 39.5664Z" fill="#CC66CC"/>
<path d="M15.3585 30.7479C14.8484 30.1328 14.0954 29.7806 13.2941 29.7806C12.678 29.7806 12.0753 29.9954 11.5974 30.385C10.7666 31.0654 10.3021 33.0532 10.1209 34.0084C9.94106 33.0532 9.47663 31.0654 8.64442 30.385C8.16657 29.9954 7.56523 29.7806 6.94779 29.7806C6.14511 29.7806 5.39209 30.1328 4.88337 30.7479C3.9478 31.8779 4.11156 33.5535 5.24847 34.4847C5.84981 34.977 7.129 35.2252 9.04845 35.2252C9.35851 35.2252 9.55448 35.2172 9.55448 35.2172L10.1182 35.1958L10.682 35.2172C10.682 35.2172 10.8793 35.2252 11.188 35.2252C13.1088 35.2252 14.388 34.9757 14.988 34.4847C16.1303 33.5535 16.294 31.8779 15.3585 30.7479ZM6.10887 33.4481C5.54645 32.9878 5.46323 32.158 5.92766 31.6004C6.18001 31.2962 6.55182 31.1201 6.94913 31.1201C7.25785 31.1201 7.54778 31.2241 7.78671 31.4203C8.11154 31.6858 8.48066 32.7851 8.71825 33.8804C7.25114 33.8537 6.3545 33.6496 6.10887 33.4481ZM14.1343 33.4481C13.8887 33.6496 12.992 33.8537 11.5236 33.8804C11.7625 32.7837 12.1303 31.6858 12.4551 31.4203C12.6954 31.2255 12.9853 31.1201 13.2954 31.1201C13.6914 31.1201 14.0659 31.2949 14.3169 31.6004C14.7786 32.158 14.6967 32.9878 14.1343 33.4481Z" fill="#CC66CC"/>
<path d="M10.1044 33.9231C9.91385 32.9411 9.45479 31.0467 8.6454 30.3837C8.16755 29.9941 7.56621 29.7793 6.94876 29.7793C6.14608 29.7793 5.39307 30.1315 4.88435 30.7465C3.94878 31.8765 4.11254 33.5522 5.24944 34.4834C5.85078 34.9757 7.12997 35.2238 9.04942 35.2238C9.35949 35.2238 9.55546 35.2158 9.55546 35.2158L10.1018 35.1945V33.9231H10.1044ZM6.1085 33.4481C5.54609 32.9878 5.46287 32.158 5.92729 31.6004C6.17964 31.2962 6.55145 31.1201 6.94876 31.1201C7.25749 31.1201 7.54742 31.2241 7.78634 31.4203C8.11117 31.6857 8.4803 32.7851 8.71788 33.8804C7.25077 33.8537 6.35414 33.6496 6.1085 33.4481Z" fill="#CC66CC"/>
<path d="M55.679 39.537C56.2172 38.8139 56.0629 37.7853 55.3367 37.2503L47.5797 31.7578C46.9408 31.2895 46.067 31.3495 45.4978 31.8618L44.4066 31.0587C44.7314 30.369 44.5341 29.5191 43.8965 29.0495L42.4791 28.0062C41.8401 27.5366 40.965 27.598 40.3959 28.109L38.5194 26.7295L36.7288 29.1336L54.0226 41.765L55.679 39.537Z" fill="#FFCC00"/>
<path d="M36.7287 29.1322L34.8535 31.6523L36.73 33.0332C36.4038 33.7229 36.6012 34.5741 37.2401 35.0423L38.6575 36.0856C39.2964 36.5539 40.1716 36.4938 40.7407 35.9829L41.832 36.786C41.5058 37.4758 41.7045 38.3256 42.3421 38.7952L50.0977 44.2877C50.8252 44.8214 51.8601 44.668 52.3984 43.9449L54.0225 41.7649L36.7287 29.1322Z" fill="#FFA600"/>
<path d="M33.5503 3.65587C25.2241 -2.46905 13.4363 -0.717354 7.2739 7.55815C1.11287 15.835 2.87259 27.5512 11.2014 33.6748C19.5275 39.7997 31.3154 38.048 37.4778 29.7725C43.6401 21.497 41.8777 9.77945 33.5503 3.65587ZM35.5019 28.3196C30.1463 35.5145 19.8993 37.0354 12.6618 31.7136C5.42559 26.3878 3.89406 16.2059 9.24839 9.011C14.6054 1.81746 24.8496 0.295238 32.0899 5.61835C39.3274 10.9415 40.8576 21.1261 35.5019 28.3196Z" fill="#FFCC00"/>
<path d="M9.24845 9.01119C3.89277 16.2047 5.42431 26.388 12.6618 31.7125C19.8994 37.0356 30.1463 35.5134 35.502 28.3185C40.8577 21.1263 39.3261 10.9417 32.0886 5.61854C24.851 0.295423 14.6055 1.81765 9.24845 9.01119Z" fill="#5CD1E0"/>
<path d="M21.4213 4.84613C26.6642 4.49526 31.895 7.11946 34.589 11.9903C34.9165 12.5813 34.699 13.3231 34.1044 13.6486C33.5098 13.9728 32.7648 13.7567 32.436 13.167C29.3863 7.6531 22.3917 5.63459 16.8441 8.66569C16.2495 8.98988 15.5032 8.77509 15.1757 8.18408C14.8495 7.59307 15.0656 6.8513 15.6589 6.52578C17.4938 5.52386 19.4589 4.97554 21.4213 4.84613Z" fill="white"/>
<mask id="mask0" mask-type="alpha" maskUnits="userSpaceOnUse" x="6" y="2" width="33" height="33">
<path d="M9.2482 9.01095C3.89253 16.2045 5.42406 26.3878 12.6616 31.7122C19.8991 37.0353 30.1461 35.5131 35.5017 28.3182C40.8574 21.126 39.3259 10.9414 32.0883 5.61829C24.8508 0.295179 14.6052 1.8174 9.2482 9.01095Z" fill="#5CD1E0"/>
</mask>
<g mask="url(#mask0)">
<path d="M26.9405 42.0983C26.9405 42.9855 26.0023 43.7033 24.8466 43.7033H4.38631C3.23061 43.7033 2.2937 42.9855 2.2937 42.0983V30.3208C2.2937 29.4336 3.23061 28.7145 4.38631 28.7145H24.8466C26.0036 28.7145 26.9405 29.4336 26.9405 30.3208V42.0983Z" fill="#6FAD03"/>
<path d="M27.4291 27.455C27.3807 26.3037 26.4331 25.3818 25.2613 25.3818H3.97148C2.79968 25.3818 1.85337 26.3037 1.80371 27.455H1.79565V32.6861C1.79565 33.0837 2.12183 33.4052 2.52182 33.4052H26.7109C27.1123 33.4052 27.4358 33.0823 27.4358 32.6861V27.455H27.4291Z" fill="#9AC720"/>
<path d="M14.5795 28.7145H4.38631C3.23061 28.7145 2.2937 29.4336 2.2937 30.3208V42.0983C2.2937 42.9855 3.23061 43.7033 4.38631 43.7033H14.5795V28.7145Z" fill="#6FAD03"/>
<path d="M14.5795 25.3818H3.97148C2.79968 25.3818 1.85337 26.3037 1.80371 27.455H1.79565V32.6861C1.79565 33.0837 2.12183 33.4052 2.52182 33.4052H14.5795V25.3818Z" fill="#9AC720"/>
<path d="M16.7648 25.3818H12.4695V43.7046H16.7648V25.3818Z" fill="#9E6DB5"/>
<path d="M14.5795 25.3818H12.4695V43.7046H14.5795V25.3818Z" fill="#CC66CC"/>
<path d="M9.64006 30.9318L8.13403 30.1286C10.4964 25.7421 12.9904 23.9544 13.0951 23.881L14.0857 25.2645C14.0615 25.2818 11.7958 26.9294 9.64006 30.9318Z" fill="#CC66CC"/>
<path d="M21.2508 19.7599C20.6038 18.9808 19.6508 18.5352 18.636 18.5352C17.8548 18.5352 17.0924 18.806 16.487 19.2996C15.4347 20.1614 14.8468 22.6789 14.6159 23.889C14.3877 22.6789 13.7998 20.1614 12.7461 19.2996C12.1421 18.806 11.3783 18.5352 10.5971 18.5352C9.57969 18.5352 8.62667 18.9808 7.98238 19.7599C6.79715 21.1914 7.00386 23.314 8.44546 24.4933C9.20653 25.1163 10.828 25.4312 13.2589 25.4312C13.6521 25.4312 13.9005 25.4219 13.9005 25.4219L14.6146 25.3938L15.3286 25.4219C15.3286 25.4219 15.5783 25.4312 15.9703 25.4312C18.4038 25.4312 20.0226 25.1163 20.7836 24.4933C22.2266 23.3153 22.4346 21.1927 21.2508 19.7599ZM9.53271 23.1805C8.81996 22.5975 8.71526 21.5463 9.30318 20.8392C9.62264 20.4536 10.0938 20.2308 10.5971 20.2308C10.9877 20.2308 11.3555 20.3629 11.6589 20.611C12.0709 20.9486 12.5381 22.3387 12.8387 23.7275C10.981 23.6942 9.84411 23.4367 9.53271 23.1805ZM19.6991 23.1805C19.3877 23.4367 18.2521 23.6942 16.3931 23.7289C16.6951 22.3401 17.1622 20.9486 17.5729 20.6124C17.8763 20.3656 18.2441 20.2321 18.636 20.2321C19.138 20.2321 19.6118 20.4536 19.93 20.8405C20.5165 21.5476 20.4118 22.5975 19.6991 23.1805Z" fill="#CC66CC"/>
<path d="M14.5944 23.7822C14.3542 22.5388 13.7716 20.1388 12.7461 19.2996C12.1421 18.806 11.3783 18.5352 10.5971 18.5352C9.57969 18.5352 8.62667 18.9808 7.98238 19.7599C6.79715 21.1914 7.00386 23.314 8.44546 24.4933C9.20653 25.1163 10.828 25.4312 13.2589 25.4312C13.6521 25.4312 13.9005 25.4219 13.9005 25.4219L14.5931 25.3938V23.7822H14.5944ZM9.53271 23.1805C8.81996 22.5975 8.71526 21.5463 9.30318 20.8392C9.62264 20.4536 10.0938 20.2308 10.5971 20.2308C10.9877 20.2308 11.3555 20.3629 11.6589 20.611C12.0709 20.9486 12.5381 22.3387 12.8387 23.7275C10.981 23.6942 9.84411 23.4367 9.53271 23.1805Z" fill="#CC66CC"/>
</g>
</svg>
