<svg width="58" height="58" viewBox="0 0 58 58" fill="none" xmlns="http://www.w3.org/2000/svg">
<path d="M35.0129 29.6304C35.0129 26.492 32.4486 23.9383 29.2969 23.9383C26.1454 23.9383 23.5812 26.4921 23.5812 29.6304C23.5812 32.7695 26.1454 35.3227 29.2969 35.3227C32.4486 35.3227 35.0129 32.7695 35.0129 29.6304ZM43.5049 0H14.4951C6.50247 0 0 6.47609 0 14.436V18.4583H21.3295C23.5801 16.8616 26.3289 15.9184 29.2969 15.9184C32.2648 15.9184 35.0139 16.8616 37.2647 18.4583H57.9999V14.436C57.9999 6.47603 51.4975 0 43.5049 0ZM49.3753 13.7298C49.3753 14.6119 48.6508 15.3338 47.7647 15.3338H42.7884C41.9025 15.3338 41.1778 14.6119 41.1778 13.7298V8.77339C41.1778 7.89131 41.9024 7.16938 42.7884 7.16938H47.7647C48.6507 7.16938 49.3753 7.89119 49.3753 8.77339V13.7298ZM43.0656 29.6304C43.0656 37.1919 36.8886 43.3426 29.2968 43.3426C21.7047 43.3426 15.5283 37.1919 15.5283 29.6304C15.5283 27.5487 15.9991 25.5745 16.8364 23.8049H0V43.564C0 51.5245 6.50247 58 14.4951 58H43.505C51.4975 58 58 51.5244 58 43.564V23.8049H41.7575C42.5948 25.5745 43.0656 27.5487 43.0656 29.6304Z" fill="#FAB221"/>
</svg>
