<svg width="36" height="36" viewBox="0 0 36 36" fill="none" xmlns="http://www.w3.org/2000/svg">
<path fill-rule="evenodd" clip-rule="evenodd" d="M0.43934 33.0368C-0.146447 33.6225 -0.146447 34.5723 0.43934 35.1581C1.02513 35.7439 1.97487 35.7439 2.56066 35.1581L17.7987 19.9201L33.0368 35.1582C33.6225 35.744 34.5723 35.744 35.1581 35.1582C35.7439 34.5724 35.7439 33.6226 35.1581 33.0369L19.92 17.7988L35.1581 2.56066C35.7439 1.97487 35.7439 1.02513 35.1581 0.43934C34.5723 -0.146447 33.6225 -0.146446 33.0368 0.43934L17.7987 15.6774L2.56066 0.439438C1.97487 -0.146348 1.02513 -0.146348 0.43934 0.439438C-0.146447 1.02522 -0.146447 1.97497 0.43934 2.56076L15.6773 17.7988L0.43934 33.0368Z" fill="white"/>
</svg>
